 <svg version="1.0" xmlns="http://www.w3.org/2000/svg" width="700.000000pt" height="665.000000pt" viewBox="0 0 700.000000 665.000000" preserveAspectRatio="xMidYMid meet">
<metadata>
Created by potrace 1.12, written by Peter Selinger 2001-2015
</metadata>
<g transform="translate(0.000000,665.000000) scale(0.100000,-0.100000)" fill="#000000" stroke="none">
<path d="M2988 6422 c-7 -8 -8 -16 -2 -22 5 -5 121 -11 259 -12 l250 -3 0 -24
0 -24 -250 2 -250 2 -26 25 c-28 27 -50 24 -79 -10 -9 -11 -30 -16 -71 -16
-46 0 -59 -3 -59 -15 0 -9 -11 -20 -25 -25 -14 -5 -25 -16 -25 -24 0 -8 -10
-16 -22 -18 -30 -4 -32 -43 -3 -43 13 0 21 8 23 23 3 17 9 22 25 20 30 -4 35
-43 8 -51 -12 -3 -21 -13 -21 -24 0 -45 27 -37 65 18 21 29 36 40 64 45 20 3
71 17 114 31 78 25 81 25 365 21 l287 -4 78 -37 c43 -20 89 -49 103 -64 l25
-28 19 24 c14 20 26 24 61 22 66 -2 119 9 119 25 0 20 -47 36 -83 28 -21 -4
-35 -1 -50 13 -12 11 -33 20 -47 21 -14 0 -31 10 -39 22 -11 17 -24 20 -80 20
-70 0 -84 5 -94 33 -3 9 -11 17 -17 17 -6 0 -14 -8 -17 -17 -16 -44 -53 -31
-53 19 0 16 -6 31 -12 33 -7 3 -129 6 -271 7 -202 2 -261 0 -269 -10z"></path>
<path d="M2572 6194 c-12 -8 -22 -21 -22 -29 0 -8 -30 -44 -67 -81 -71 -71
-113 -126 -113 -149 0 -8 -12 -22 -26 -31 -17 -12 -24 -23 -20 -37 3 -12 -4
-28 -20 -44 -30 -30 -32 -73 -4 -91 12 -7 20 -23 20 -40 0 -41 11 -72 25 -72
12 0 25 50 25 100 0 14 15 47 33 75 19 27 41 62 51 78 9 15 23 27 31 27 20 0
55 49 55 77 0 28 113 153 137 153 8 0 13 3 11 8 -3 4 -10 22 -17 40 -11 27
-18 32 -45 32 -17 0 -42 -7 -54 -16z m-75 -220 c3 -8 1 -20 -4 -25 -14 -14
-43 0 -43 22 0 24 38 26 47 3z"></path>
<path d="M3926 6161 c-60 -7 -76 -31 -21 -31 46 0 90 -21 143 -66 22 -19 48
-34 59 -34 26 0 121 -66 184 -127 39 -40 60 -53 82 -53 31 0 58 -24 130 -113
26 -32 49 -49 75 -56 71 -20 208 -166 227 -244 5 -18 -1 -39 -20 -71 -32 -54
-31 -99 2 -104 19 -3 22 2 25 35 2 30 7 38 23 38 16 0 21 -8 23 -38 3 -30 7
-37 20 -35 11 2 18 15 20 38 2 19 8 40 13 46 12 14 -11 60 -40 80 -23 17 -19
40 10 47 14 4 19 14 19 40 0 46 -13 54 -38 20 -13 -17 -25 -24 -36 -20 -24 10
-19 36 9 47 29 11 33 28 8 37 -10 4 -37 26 -60 50 -23 25 -47 42 -53 38 -19
-12 -50 15 -50 44 0 49 -94 111 -123 82 -9 -9 -5 -17 17 -34 27 -22 27 -24 11
-40 -18 -19 -35 -14 -35 9 0 8 -11 19 -25 24 -14 5 -25 16 -25 25 0 9 11 20
25 25 31 12 32 23 1 43 -13 9 -26 29 -29 46 -9 43 -43 51 -74 17 -32 -35 -80
-36 -93 -1 -5 14 -16 25 -24 25 -24 0 -30 21 -12 38 16 16 19 15 41 -12 22
-27 26 -29 51 -17 l27 12 -34 31 c-19 17 -47 34 -64 38 -19 4 -31 13 -34 25
-10 54 -90 74 -126 30 -17 -21 -25 -23 -55 -17 -33 7 -35 10 -35 47 l0 40 -45
1 c-25 1 -67 -1 -94 -5z m322 -88 c-4 -34 -48 -48 -48 -16 0 22 18 43 38 43 9
0 12 -9 10 -27z"></path>
<path d="M4115 6160 c-4 -7 -3 -16 3 -22 14 -14 45 -2 40 15 -6 16 -34 21 -43
7z"></path>
<path d="M2224 5719 c-9 -15 12 -33 30 -26 9 4 16 13 16 22 0 17 -35 21 -46 4z"></path>
<path d="M2234 5635 c-4 -9 -2 -21 4 -27 15 -15 44 -1 40 19 -4 23 -36 29 -44
8z"></path>
<path d="M2172 5577 c-25 -26 -29 -57 -8 -57 35 0 35 -72 -1 -98 l-26 -19 26
-18 c26 -17 37 -45 17 -45 -5 0 -25 -16 -45 -35 -33 -34 -35 -39 -35 -104 0
-63 2 -69 25 -79 29 -13 31 -24 10 -42 -22 -18 -45 -5 -45 26 0 16 -5 24 -12
22 -16 -5 -22 -41 -13 -75 5 -20 10 -24 29 -19 13 3 31 -1 42 -9 18 -15 18
-16 -8 -38 l-28 -23 0 -351 0 -351 25 -16 c21 -14 25 -24 25 -66 0 -27 6 -67
14 -87 8 -21 17 -69 21 -108 3 -38 13 -77 21 -86 7 -8 14 -20 14 -26 0 -6 7
-16 15 -23 12 -10 18 -10 30 0 22 18 18 39 -9 50 -23 8 -25 14 -28 100 -3 94
3 120 27 120 24 0 32 -32 25 -100 -4 -36 -4 -69 0 -73 13 -15 55 -3 51 13 -3
8 -6 50 -9 92 -4 74 -6 78 -38 103 -20 16 -34 35 -34 48 0 12 -9 41 -19 64
-17 37 -20 77 -25 376 -4 225 -3 338 4 342 7 4 7 12 0 26 -17 31 -5 264 14
294 9 14 16 46 16 75 0 60 19 110 60 157 33 37 35 56 7 61 -11 2 -21 -6 -27
-22 -12 -33 -24 -33 -52 -1 -27 31 -29 31 -56 2z"></path>
<path d="M2110 5484 c0 -8 5 -12 10 -9 6 4 8 11 5 16 -9 14 -15 11 -15 -7z"></path>
<path d="M4724 5230 c-28 -28 -203 -110 -235 -110 -15 0 -38 -9 -52 -20 -14
-11 -40 -20 -60 -20 -49 0 -84 -15 -92 -39 -4 -12 -37 -38 -78 -61 -56 -31
-79 -38 -103 -34 -28 5 -36 1 -70 -40 -24 -29 -46 -46 -61 -46 -31 0 -39 -19
-14 -36 12 -8 21 -24 21 -35 0 -28 -35 -24 -48 6 -17 36 -38 31 -85 -22 -23
-26 -56 -61 -73 -78 -17 -16 -41 -45 -54 -63 -13 -20 -33 -35 -52 -39 -30 -6
-32 -8 -42 -54 -3 -14 -19 -43 -36 -64 -35 -44 -85 -146 -93 -190 -12 -63 -25
-111 -41 -147 -9 -21 -16 -49 -16 -64 0 -18 -12 -38 -37 -60 -36 -33 -38 -38
-39 -102 -1 -37 -3 -76 -5 -87 -3 -16 1 -20 21 -20 24 0 25 2 30 90 l5 90 32
3 c25 3 35 -2 49 -23 28 -42 47 -29 48 34 1 47 -2 54 -21 62 -26 10 -31 44 -8
53 25 9 45 -4 45 -30 0 -27 19 -33 21 -6 6 100 5 102 -18 117 -13 9 -23 22
-23 29 0 24 32 28 55 6 25 -23 35 -18 35 20 0 15 9 35 20 45 11 10 20 23 20
29 0 6 12 34 25 61 14 28 25 55 25 62 0 6 18 27 40 46 22 19 40 42 40 53 0 32
16 47 52 48 27 1 34 5 36 24 3 22 1 23 -26 17 -21 -4 -34 -1 -46 11 -16 15
-14 19 19 51 29 28 39 33 50 23 8 -7 15 -28 15 -47 0 -27 4 -34 17 -31 9 2 20
14 23 28 3 15 19 32 40 42 39 20 50 46 43 100 -4 29 -2 39 12 44 9 4 21 17 26
30 5 14 17 24 29 24 27 0 28 -45 0 -60 -13 -7 -20 -21 -20 -40 0 -42 19 -48
46 -15 16 20 28 26 43 22 30 -7 37 11 12 34 -11 10 -18 26 -15 34 9 22 41 18
54 -5 15 -27 38 -25 67 6 19 20 29 24 52 19 36 -8 48 9 21 28 -17 12 -21 23
-18 58 3 43 4 44 41 47 47 4 62 -22 27 -48 -29 -22 -21 -50 14 -50 16 0 32 9
42 25 14 21 23 25 53 23 30 -3 36 0 36 17 0 16 -8 21 -40 25 -35 4 -40 8 -40
30 0 22 4 25 30 22 17 -2 41 -14 56 -28 32 -31 62 -31 83 1 12 18 25 25 50 25
25 0 35 5 39 20 4 15 14 20 36 20 21 0 35 7 46 24 9 13 25 26 35 29 14 4 20
14 20 35 0 44 -19 50 -47 16 l-24 -29 -22 27 -23 28 -20 -20z m-1004 -705 c0
-19 -27 -26 -40 -9 -18 20 6 50 26 33 8 -6 14 -17 14 -24z m-49 -71 c12 -14
10 -19 -14 -39 -23 -17 -27 -27 -22 -48 6 -21 3 -28 -11 -33 -11 -4 -28 -18
-39 -31 -14 -16 -26 -22 -38 -18 -26 10 -21 44 8 55 18 7 25 17 25 35 0 15 13
40 33 60 37 40 40 41 58 19z"></path>
<path d="M4555 4811 c-8 -15 3 -31 21 -31 9 0 14 7 12 17 -4 20 -24 28 -33 14z"></path>
<path d="M4487 4750 c-7 -10 -25 -24 -39 -29 -21 -8 -27 -18 -30 -48 -4 -45
-26 -51 -45 -13 -16 32 -35 32 -43 0 -4 -17 -14 -27 -32 -30 -15 -3 -52 -26
-82 -53 -42 -36 -55 -55 -58 -80 -3 -29 -6 -32 -40 -35 -28 -2 -43 -11 -60
-33 -13 -17 -33 -41 -45 -53 -13 -13 -23 -35 -23 -49 0 -17 -9 -32 -25 -43
-24 -16 -25 -21 -25 -115 0 -93 -1 -99 -20 -99 -13 0 -24 10 -30 26 -11 29
-32 28 -40 -2 -3 -10 -12 -30 -21 -44 -9 -14 -19 -48 -22 -77 -3 -28 -15 -72
-26 -97 -28 -60 -27 -90 4 -110 34 -23 32 -46 -4 -46 -21 0 -30 6 -34 21 -11
42 -24 8 -25 -67 -1 -53 -7 -83 -17 -94 -18 -19 -10 -30 20 -30 26 0 53 -27
39 -39 -5 -5 -18 -11 -29 -13 -28 -5 -25 -31 5 -38 16 -4 25 -13 25 -25 0 -16
-9 -21 -45 -25 l-45 -5 3 -58 c3 -47 -1 -65 -22 -101 -25 -42 -26 -52 -26
-180 0 -136 6 -160 35 -136 12 10 14 34 9 129 -5 96 -3 119 9 129 8 7 22 10
30 6 14 -5 15 -44 13 -332 l-2 -327 -35 0 c-57 0 -60 -7 -55 -101 5 -80 4 -88
-25 -144 -25 -50 -35 -60 -56 -60 -14 0 -36 -11 -48 -24 -13 -14 -40 -28 -61
-31 -51 -9 -101 -35 -119 -62 -21 -31 -43 -19 -47 25 l-3 36 -73 1 c-58 0 -77
-4 -89 -17 -21 -23 -53 -23 -53 -1 0 10 12 27 28 39 l27 22 -27 11 c-14 5 -30
17 -35 25 -11 19 -80 66 -98 66 -22 0 -18 -26 7 -42 14 -9 19 -20 15 -31 -7
-19 -47 -23 -47 -5 0 7 -12 21 -26 33 l-26 20 21 26 c11 15 17 29 14 33 -3 3
-28 6 -55 6 -53 0 -71 18 -50 50 8 13 7 21 -1 29 -17 17 -33 13 -51 -14 -12
-19 -25 -25 -51 -25 -46 0 -54 18 -20 46 42 33 29 49 -41 49 -56 0 -59 1 -59
25 0 21 5 26 38 30 52 7 47 24 -8 30 -49 6 -77 31 -175 150 -76 93 -96 110
-129 110 -24 0 -34 6 -40 24 -5 13 -17 26 -25 29 -10 4 -16 19 -16 42 0 29 5
37 26 45 33 13 26 35 -12 37 -16 0 -35 2 -41 2 -21 2 -15 42 7 48 20 5 29 33
11 33 -19 0 -41 32 -41 59 0 16 -7 34 -15 41 -8 7 -19 27 -23 44 -7 27 -13 31
-45 34 -25 2 -38 9 -42 23 -4 10 -15 19 -25 19 -33 0 -33 21 -2 49 34 32 49
68 33 84 -6 6 -11 30 -11 54 0 25 -6 45 -14 50 -21 13 -35 46 -29 74 6 33 -12
46 -27 19 -12 -22 -45 -27 -56 -8 -4 6 4 20 19 33 15 11 27 23 27 26 0 3 -20
20 -45 39 -51 38 -56 56 -19 70 27 11 27 25 -2 82 -8 15 -14 36 -14 48 0 12
-10 25 -25 32 -24 11 -29 21 -37 73 -3 13 -11 19 -23 18 -31 -3 -55 16 -55 43
0 15 -14 38 -35 60 -28 28 -42 35 -67 32 -40 -4 -48 -25 -14 -38 16 -6 26 -17
26 -30 0 -19 -6 -20 -149 -20 -115 0 -150 3 -154 13 -7 19 4 34 28 38 36 7 23
34 -17 37 -29 2 -39 -1 -48 -17 -9 -18 -20 -21 -69 -21 -79 0 -109 -23 -113
-88 -3 -45 -4 -47 -36 -50 -18 -2 -31 -6 -29 -10 2 -4 10 -21 17 -39 8 -18 24
-34 37 -38 30 -7 29 -33 -1 -45 -13 -5 -29 -16 -34 -26 -5 -9 -23 -17 -43 -18
-29 -1 -34 -6 -40 -34 -5 -26 -2 -34 17 -47 23 -15 24 -20 24 -135 0 -109 -2
-120 -21 -133 -14 -11 -20 -23 -17 -43 3 -28 6 -29 63 -34 l60 -5 5 -85 c5
-83 6 -85 32 -88 22 -3 26 -8 25 -29 -1 -14 4 -28 11 -30 18 -7 15 28 -8 75
-13 27 -20 61 -20 101 0 50 -4 64 -25 87 -22 23 -25 37 -27 103 -4 205 9 316
42 336 5 3 10 15 10 27 0 11 16 42 36 69 29 40 41 49 66 49 16 0 42 8 56 19
23 16 47 18 177 18 83 0 158 -4 167 -8 9 -5 20 -18 23 -30 4 -11 24 -45 45
-75 21 -30 41 -73 45 -94 4 -21 12 -44 20 -50 7 -6 16 -27 20 -48 4 -20 13
-48 20 -62 7 -14 16 -41 20 -60 3 -19 13 -50 21 -68 9 -18 20 -60 26 -92 12
-62 22 -75 31 -39 4 15 12 20 29 17 33 -4 35 -35 3 -50 -25 -11 -26 -16 -20
-52 3 -23 14 -50 24 -61 16 -19 90 -166 141 -283 13 -29 30 -58 37 -64 7 -6
13 -20 13 -31 0 -12 18 -40 41 -63 39 -39 55 -62 152 -204 48 -71 187 -210
209 -210 8 0 31 -18 52 -39 21 -22 50 -42 65 -46 29 -7 66 -34 164 -117 37
-32 77 -58 88 -58 11 0 41 -19 67 -43 63 -58 92 -70 189 -77 63 -5 90 -12 113
-28 l29 -22 37 25 c21 14 51 25 70 25 24 0 45 10 71 33 21 17 60 43 87 57 28
14 72 47 99 75 42 44 48 54 43 83 -3 17 2 52 10 76 14 40 13 47 -4 94 -17 45
-18 53 -5 71 12 17 14 77 12 345 -1 178 2 329 5 335 4 6 7 41 7 78 0 39 6 78
14 93 8 14 18 77 23 140 9 112 40 222 70 252 7 7 12 27 12 45 0 24 7 37 25 49
21 14 25 23 24 68 -1 35 5 64 20 91 11 22 21 48 21 58 0 26 26 72 82 144 l49
63 -24 9 c-30 11 -40 36 -23 50 18 15 44 4 51 -20 9 -26 27 -19 36 13 10 38
105 129 169 162 30 15 64 36 75 46 11 9 60 37 109 61 l89 43 226 2 c255 2 291
-2 353 -40 23 -15 65 -40 91 -56 26 -16 60 -33 75 -37 27 -6 152 -100 152
-114 0 -3 52 -60 116 -125 64 -66 125 -135 135 -154 11 -19 31 -50 44 -69 32
-44 39 -151 13 -214 -13 -33 -92 -97 -120 -97 -10 0 -36 -9 -58 -20 -34 -18
-59 -20 -198 -20 -146 0 -160 -2 -177 -20 -13 -14 -31 -20 -61 -20 -32 0 -67
-13 -141 -51 -54 -28 -107 -59 -118 -69 -11 -10 -42 -29 -70 -44 -81 -42 -161
-125 -188 -198 -18 -48 -134 -265 -156 -291 -6 -8 -16 -49 -21 -92 -5 -43 -16
-85 -24 -94 -7 -9 -17 -38 -21 -66 -3 -27 -13 -59 -20 -71 -7 -12 -17 -39 -20
-60 -4 -21 -13 -49 -21 -60 -7 -12 -16 -57 -20 -100 -4 -54 -12 -85 -24 -99
-11 -12 -19 -42 -22 -79 -4 -47 -10 -63 -26 -74 -17 -11 -22 -25 -22 -56 0
-25 -8 -51 -20 -66 -11 -14 -20 -36 -20 -50 0 -18 -28 -52 -107 -128 -60 -57
-138 -133 -174 -168 -37 -36 -75 -64 -86 -64 -11 0 -33 -10 -48 -22 -18 -14
-44 -22 -76 -24 -31 -1 -58 -9 -75 -23 -15 -12 -41 -21 -60 -21 -18 0 -49 -9
-68 -21 -33 -19 -48 -20 -208 -17 -145 2 -177 6 -198 21 -13 9 -37 17 -53 17
-15 0 -50 11 -77 25 -27 14 -64 25 -83 25 -33 0 -190 59 -210 79 -6 6 -19 11
-28 11 -10 0 -40 18 -68 40 -42 33 -58 40 -95 40 -35 0 -48 5 -56 20 -6 11
-23 23 -38 26 -15 4 -52 24 -82 44 -30 21 -65 40 -77 44 -11 4 -33 22 -48 41
-14 19 -35 35 -45 35 -11 0 -51 29 -89 63 -38 35 -84 71 -103 80 -19 9 -57 41
-86 72 -29 31 -60 55 -71 55 -25 0 -139 94 -151 123 -5 12 -11 34 -14 48 -5
25 -18 36 -134 121 -61 45 -71 58 -83 115 -9 39 -20 59 -39 73 -31 22 -102
141 -156 262 -37 83 -40 87 -74 90 -33 3 -35 6 -38 41 -3 30 -9 40 -29 48 -24
9 -25 13 -21 59 6 58 -10 82 -38 59 -21 -17 -13 -98 14 -137 11 -15 23 -49 27
-77 4 -29 16 -60 28 -73 13 -14 20 -34 19 -52 -3 -36 13 -47 28 -20 13 23 45
27 54 5 3 -9 -4 -21 -20 -32 -23 -14 -25 -22 -21 -55 6 -44 22 -68 46 -68 24
0 41 -20 41 -48 0 -13 9 -36 19 -51 10 -14 21 -37 22 -51 6 -37 33 -32 37 7 4
35 24 58 46 50 11 -5 13 -18 9 -62 -5 -51 -4 -57 15 -62 33 -8 37 -35 7 -59
-14 -11 -22 -23 -19 -27 4 -4 43 -7 87 -7 69 0 79 -2 84 -19 3 -11 13 -21 24
-24 25 -7 24 -33 -1 -49 -32 -21 -25 -59 20 -103 22 -21 40 -44 40 -50 1 -5
14 -25 29 -43 24 -28 33 -32 57 -26 16 4 39 18 50 32 l21 26 58 -58 c46 -46
56 -62 49 -74 -15 -24 -33 -26 -41 -6 -10 28 -72 86 -83 79 -19 -12 -10 -32
36 -78 33 -34 54 -47 74 -47 20 0 45 -15 84 -51 31 -28 56 -56 56 -63 0 -7 13
-25 29 -40 24 -23 34 -26 64 -21 32 6 37 4 51 -22 12 -25 20 -29 45 -25 25 3
32 0 40 -19 9 -24 58 -76 63 -68 2 2 8 13 14 24 8 14 23 21 53 23 39 3 42 1
39 -19 -2 -16 -14 -25 -43 -33 -53 -15 -55 -42 -3 -38 30 3 40 -1 53 -22 14
-21 25 -26 60 -26 26 0 47 6 55 15 17 21 4 33 -40 37 -27 2 -35 7 -35 23 0 16
8 21 38 23 27 2 39 -1 43 -13 4 -9 17 -21 30 -26 30 -11 31 -32 3 -58 -23 -22
-20 -51 6 -51 9 0 27 -7 40 -16 14 -9 49 -16 82 -17 52 -2 59 -5 70 -29 12
-24 16 -25 42 -15 16 6 34 21 40 34 19 42 102 22 85 -20 -3 -10 -20 -17 -42
-19 -58 -5 -49 -32 13 -39 76 -9 150 -41 150 -64 0 -14 -8 -21 -25 -23 -33 -5
-48 -20 -27 -28 19 -7 23 -49 7 -59 -6 -4 -30 13 -53 38 -62 65 -78 71 -189
68 -53 -1 -113 2 -135 7 -21 6 -50 13 -65 16 -20 5 -27 13 -30 34 -4 36 -32
36 -36 -1 -3 -23 -8 -28 -25 -25 -17 2 -23 12 -27 37 -4 28 -14 40 -50 61 -25
15 -62 30 -82 34 -20 3 -47 15 -59 25 -13 10 -46 26 -74 36 -27 10 -61 28 -75
40 -14 12 -50 38 -81 58 -31 19 -60 41 -64 47 -17 27 -129 90 -160 90 -18 0
-38 6 -44 14 -12 14 -5 46 10 46 5 0 9 7 9 15 0 8 -8 15 -18 15 -20 0 -45 24
-55 53 -7 19 -27 24 -27 6 0 -6 -12 -9 -27 -7 -25 3 -28 7 -31 48 -4 70 -10
79 -32 50 -16 -20 -22 -23 -37 -14 -10 6 -19 22 -21 35 -7 58 -13 71 -43 81
-31 11 -79 74 -79 103 0 34 -31 76 -61 82 -16 3 -34 14 -40 24 -5 11 -16 19
-23 19 -7 0 -21 9 -31 20 -10 11 -26 20 -35 20 -29 0 -80 62 -80 98 0 22 -5
32 -15 32 -8 0 -15 -6 -15 -14 0 -28 -30 -25 -65 8 -23 22 -35 43 -35 59 0 19
-8 31 -29 41 -16 9 -31 22 -34 31 -10 23 -45 18 -63 -10 -19 -28 -42 -33 -51
-9 -4 10 4 24 21 37 l27 22 -50 40 c-28 21 -53 45 -55 52 -4 9 -33 13 -104 13
-95 0 -100 -1 -140 -32 -31 -24 -42 -39 -42 -60 0 -17 -7 -31 -20 -38 -11 -6
-20 -17 -20 -26 0 -8 -8 -17 -18 -21 -9 -3 -24 -15 -33 -26 -10 -12 -23 -18
-33 -14 -23 9 -20 38 4 44 11 3 20 12 20 19 0 8 12 19 26 24 31 12 29 44 -4
48 -16 2 -31 -7 -50 -29 -15 -18 -44 -51 -64 -74 -21 -23 -38 -47 -38 -53 0
-6 12 -17 28 -24 40 -20 35 -43 -10 -43 -30 0 -43 -7 -67 -35 -30 -34 -30 -37
-31 -146 0 -105 1 -113 22 -126 22 -15 23 -19 22 -178 -2 -157 -3 -164 -23
-172 -12 -4 -21 -14 -21 -22 0 -7 -11 -21 -25 -30 -33 -21 -24 -36 22 -36 26
0 36 5 40 20 3 10 16 26 29 35 24 15 24 17 24 192 0 169 1 178 22 200 20 21
22 33 20 111 -1 48 -5 94 -7 103 -7 21 53 103 95 131 19 13 40 34 47 48 19 38
121 73 223 75 l84 3 41 -43 c22 -24 63 -55 90 -69 30 -15 97 -71 165 -138 63
-62 135 -126 160 -143 24 -16 58 -50 74 -75 37 -57 521 -540 541 -540 9 0 34
-17 58 -39 23 -21 58 -46 77 -56 19 -10 55 -34 80 -55 25 -20 59 -42 77 -49
18 -7 38 -20 44 -27 31 -38 101 -74 142 -74 26 0 58 -10 86 -25 23 -14 48 -25
54 -25 7 0 39 -17 72 -37 l60 -38 160 -5 c145 -5 163 -7 188 -26 25 -20 39
-22 169 -22 79 -1 157 3 174 9 21 6 40 6 58 0 20 -8 34 -6 64 8 26 14 69 21
150 25 70 3 123 11 142 21 16 8 40 15 53 15 13 0 32 9 41 19 10 10 34 22 54
26 20 4 65 18 99 31 35 14 68 22 74 19 6 -4 20 2 32 13 12 10 34 22 49 26 15
3 54 33 87 65 33 33 89 76 125 96 35 19 75 50 89 68 14 18 68 76 120 130 62
63 98 108 102 127 4 17 17 43 29 58 13 15 52 77 87 137 34 61 71 121 81 134
10 13 18 34 18 47 0 12 5 26 11 30 6 3 29 45 51 92 81 173 239 347 468 512 40
30 64 40 92 40 20 0 53 9 72 21 33 19 47 20 218 17 201 -4 272 -20 346 -76 46
-35 97 -67 147 -90 55 -27 202 -160 247 -224 75 -105 105 -154 128 -203 79
-176 90 -217 93 -370 3 -159 -21 -208 -147 -301 -66 -48 -114 -63 -153 -45
-20 9 -30 9 -47 -3 -35 -22 -123 -1 -156 38 -7 10 -29 16 -54 16 -29 0 -53 8
-75 24 -20 15 -53 26 -89 31 -31 4 -69 13 -84 21 -15 8 -49 14 -75 14 -26 0
-73 7 -103 15 -105 28 -181 30 -288 6 -53 -12 -120 -31 -147 -42 -28 -10 -60
-19 -71 -19 -11 0 -36 -12 -55 -26 -93 -69 -183 -118 -214 -116 -25 2 -38 -5
-67 -38 -24 -26 -45 -40 -61 -40 -14 0 -30 -7 -38 -16 -7 -8 -26 -22 -43 -31
-17 -9 -47 -29 -68 -44 -20 -16 -55 -36 -77 -44 -23 -8 -56 -25 -74 -39 -38
-29 -161 -86 -186 -86 -18 0 -52 -23 -134 -89 -23 -19 -80 -52 -127 -75 -53
-26 -107 -62 -145 -97 -72 -67 -86 -75 -150 -84 -68 -10 -91 -24 -153 -89 -30
-31 -58 -56 -64 -56 -5 0 -21 -9 -35 -20 -14 -11 -42 -24 -63 -30 -21 -6 -54
-23 -74 -39 -20 -16 -51 -33 -67 -36 -17 -4 -67 -27 -112 -51 -45 -24 -94 -44
-109 -44 -19 0 -37 -12 -62 -42 -19 -24 -61 -56 -93 -73 -32 -16 -76 -41 -98
-56 -39 -25 -122 -59 -200 -83 -22 -7 -74 -29 -115 -49 -41 -20 -86 -37 -101
-37 -15 0 -58 -10 -95 -22 -61 -19 -88 -21 -242 -19 -145 1 -181 5 -223 21
-32 13 -74 20 -117 20 -67 0 -89 8 -202 71 -19 10 -45 19 -56 19 -39 0 -131
48 -161 84 -19 23 -50 44 -89 59 -74 30 -184 97 -250 153 -28 24 -55 44 -61
44 -16 0 -157 136 -188 181 -17 24 -56 76 -88 114 -60 72 -117 162 -117 185 0
8 -6 21 -14 29 -31 35 -146 280 -146 310 0 18 -10 45 -21 61 -16 21 -20 38
-16 62 3 20 -1 44 -9 58 -7 14 -13 48 -14 77 0 28 -4 54 -9 58 -14 8 -33 -32
-26 -55 7 -22 -20 -40 -60 -40 -29 0 -43 -24 -29 -48 5 -8 25 -20 44 -26 43
-14 48 -30 16 -52 -18 -11 -26 -25 -26 -45 0 -38 13 -43 39 -13 12 14 27 24
34 21 21 -7 20 -38 -2 -53 -18 -13 -21 -26 -21 -79 0 -53 3 -66 19 -75 24 -12
111 -174 111 -206 0 -34 18 -39 30 -9 7 20 16 26 33 23 30 -4 28 -29 -3 -45
-14 -7 -25 -17 -24 -23 1 -5 2 -22 2 -36 2 -29 117 -154 142 -154 23 0 40 -20
40 -47 0 -12 9 -27 20 -33 11 -6 20 -15 20 -20 0 -6 23 -32 51 -59 38 -37 49
-54 45 -69 -6 -16 0 -21 38 -31 31 -7 45 -17 49 -32 4 -16 11 -19 26 -14 15 5
35 -8 83 -51 35 -32 67 -64 71 -71 4 -7 20 -13 34 -13 15 0 45 -16 73 -40 54
-45 69 -48 95 -20 19 21 45 27 45 10 0 -5 11 -20 25 -33 29 -26 26 -52 -7 -61
-18 -4 -19 -7 -8 -20 7 -9 18 -16 25 -16 26 0 105 -42 115 -60 9 -17 20 -19
76 -18 60 2 68 0 86 -22 18 -22 26 -25 79 -22 56 4 151 -18 173 -39 6 -5 53
-9 106 -9 90 0 98 2 120 25 27 29 77 34 87 8 4 -11 -3 -24 -22 -38 -15 -13
-24 -28 -21 -34 10 -15 82 -3 123 22 18 10 51 20 74 21 28 1 46 9 56 22 11 16
26 19 89 19 64 1 76 4 89 22 9 13 30 23 52 26 99 13 168 43 169 74 3 55 37 73
54 28 12 -31 21 -31 58 0 17 14 33 25 37 25 4 0 18 11 31 25 13 14 33 25 46
25 13 0 29 9 36 20 8 14 23 20 47 20 40 0 44 8 14 33 -28 25 -24 102 6 102 16
0 21 -8 25 -45 6 -54 33 -64 38 -13 3 34 25 59 42 48 6 -4 16 -19 21 -33 l11
-27 21 25 c12 14 36 32 52 39 l30 13 -22 15 c-27 18 -30 51 -7 60 11 4 23 -3
36 -20 16 -22 28 -27 63 -27 50 0 65 14 35 30 -14 7 -20 19 -18 33 4 30 38 34
58 6 l18 -22 11 21 c8 15 21 22 40 22 15 0 36 9 46 20 10 11 30 20 45 20 34 0
50 17 50 55 0 22 9 38 32 59 30 26 38 28 96 24 58 -4 66 -2 79 19 9 14 25 23
40 23 16 0 41 16 71 45 25 25 52 45 60 45 9 0 24 8 34 17 10 9 37 19 59 22 48
7 56 25 12 29 -37 4 -56 22 -47 46 6 15 19 17 84 15 78 -3 78 -3 148 44 39 26
74 47 80 47 5 0 17 9 28 21 14 16 27 20 51 16 41 -7 53 10 23 33 -25 19 -24
53 3 58 11 2 21 -6 27 -24 l11 -28 23 29 c18 22 28 27 49 21 30 -7 42 6 42 49
0 23 5 31 22 33 14 2 26 -4 33 -17 14 -28 31 -26 60 4 13 14 29 25 36 25 6 0
37 20 69 45 46 35 63 43 85 39 34 -7 48 11 20 26 -25 14 -24 53 2 58 12 2 22
-6 29 -25 l11 -28 23 29 c18 23 28 27 49 22 22 -5 28 -2 36 19 8 21 16 25 54
25 27 0 48 6 57 16 7 8 25 22 41 30 22 11 28 21 26 42 -4 50 35 74 51 31 7
-21 14 -22 203 -24 204 -3 238 -7 238 -30 0 -8 12 -18 26 -21 21 -5 30 -1 48
20 19 25 27 27 76 24 l55 -3 3 -43 c2 -24 -2 -49 -7 -56 -14 -16 -4 -26 25
-26 23 0 28 8 36 65 2 15 12 21 36 23 27 3 35 -1 39 -18 3 -12 16 -26 29 -31
31 -11 31 -37 -1 -49 -25 -9 -32 -24 -17 -34 4 -2 59 -6 122 -7 l115 -3 13 28
c16 32 42 31 57 -2 13 -29 23 -28 35 4 9 22 15 25 40 22 23 -4 33 1 45 18 8
12 27 24 42 26 38 4 36 31 -2 38 -21 4 -31 11 -33 28 -3 21 0 22 72 22 75 0
105 13 72 32 -26 15 -19 45 13 56 45 16 63 51 59 118 -3 67 -20 79 -43 34 -10
-20 -22 -30 -33 -28 -14 3 -17 14 -16 60 2 70 8 81 43 73 35 -8 53 13 49 56
-4 41 -25 49 -38 15 -9 -26 -43 -36 -54 -17 -12 19 7 73 29 81 20 8 22 14 17
62 -6 64 -10 70 -29 40 -18 -26 -51 -29 -60 -5 -4 11 3 23 20 37 33 27 33 35
2 64 -15 14 -25 37 -27 60 -3 34 -6 37 -38 42 -34 5 -35 6 -38 57 -3 49 -7 57
-58 107 -39 40 -63 56 -87 58 -30 3 -32 5 -32 42 0 28 -5 41 -17 45 -9 3 -34
22 -55 41 -21 20 -60 49 -88 64 -27 16 -60 38 -73 50 -19 17 -35 21 -88 20
-60 -2 -66 0 -74 22 -5 13 -14 24 -20 24 -6 0 -15 12 -20 26 -12 31 -30 27
-48 -9 -18 -38 -66 -38 -84 0 -13 26 -16 27 -88 27 -70 -1 -76 -3 -87 -26 -11
-22 -18 -24 -70 -24 -56 1 -58 2 -61 30 -3 28 -2 29 32 23 23 -4 39 -1 46 8
18 21 3 35 -37 35 -26 0 -36 -5 -40 -20 -3 -11 -12 -20 -19 -20 -8 0 -19 -11
-24 -25 -5 -14 -14 -25 -20 -25 -6 0 -15 -11 -20 -25 -5 -14 -17 -25 -25 -25
-26 0 -29 29 -5 55 26 28 19 45 -19 45 -35 0 -52 -19 -44 -49 9 -33 -50 -91
-93 -91 -23 0 -33 -5 -37 -20 -3 -12 -14 -20 -27 -20 -13 0 -24 8 -27 20 -6
23 -33 27 -33 5 0 -9 -12 -21 -27 -27 -40 -17 -63 -39 -63 -59 0 -10 -9 -23
-20 -29 -11 -6 -20 -17 -20 -25 0 -8 -9 -19 -20 -25 -11 -6 -20 -21 -20 -34 0
-34 -23 -49 -61 -41 -27 6 -31 5 -26 -9 4 -11 -2 -26 -18 -42 -14 -14 -25 -34
-25 -45 0 -11 -11 -30 -25 -43 -14 -13 -25 -34 -25 -49 0 -17 -9 -32 -25 -43
-18 -12 -24 -22 -19 -36 7 -25 -12 -48 -42 -48 -29 0 -38 -14 -19 -30 8 -7 15
-19 15 -26 0 -8 11 -19 25 -24 23 -9 34 -38 19 -52 -11 -11 -43 5 -50 24 -8
27 -45 19 -64 -14 -14 -26 -14 -29 8 -43 15 -12 22 -26 22 -51 0 -47 -25 -56
-54 -19 -18 22 -24 25 -33 14 -18 -22 -4 -69 23 -79 28 -11 32 -38 7 -47 -10
-4 -28 -17 -39 -29 -14 -15 -29 -21 -42 -17 -15 3 -31 -5 -56 -30 -39 -39 -37
-47 8 -47 40 0 59 -13 54 -36 -3 -16 -12 -19 -59 -16 -51 3 -58 0 -73 -23 -11
-17 -25 -25 -45 -25 -39 0 -46 -11 -19 -32 19 -14 21 -20 12 -35 -6 -10 -23
-18 -38 -18 -16 0 -34 -9 -44 -23 -10 -13 -29 -24 -42 -25 -32 -3 -80 -35 -80
-53 0 -7 -11 -21 -25 -30 -16 -10 -25 -26 -25 -41 0 -16 -14 -39 -39 -63 -22
-21 -45 -48 -51 -59 -13 -26 -35 -27 -45 -4 -4 12 1 24 14 35 12 9 21 20 21
24 0 4 9 18 21 30 35 37 12 49 -28 14 -19 -17 -42 -30 -51 -28 -26 5 -27 38
-2 55 l22 16 -28 23 c-27 21 -28 24 -12 40 15 16 18 15 41 -10 31 -33 62 -36
53 -4 -18 66 -18 98 -2 104 20 8 44 -11 48 -37 4 -26 22 -29 26 -4 2 11 14 31
27 45 13 14 25 39 27 55 3 27 7 30 41 33 24 2 37 8 37 17 0 8 10 20 23 26 42
22 67 52 67 81 0 17 9 38 23 51 17 16 26 38 31 77 7 63 25 120 45 144 11 13
11 20 3 28 -18 18 -14 43 8 63 11 10 20 26 20 35 0 9 -9 25 -20 35 -26 24 -25
40 3 60 17 12 22 25 22 63 0 39 4 49 23 57 27 12 29 35 3 42 -46 12 -29 49 24
55 29 3 30 5 33 59 3 51 1 56 -23 67 -23 11 -25 17 -25 71 0 65 9 78 39 61 16
-8 21 -23 23 -68 2 -42 7 -57 18 -57 21 0 35 69 23 110 -13 40 0 65 31 65 29
0 41 15 51 57 5 27 2 37 -19 56 -14 14 -26 32 -26 41 0 23 35 20 52 -6 17 -26
38 -17 38 16 0 14 -10 30 -25 40 -14 9 -25 23 -25 32 0 25 29 28 54 5 12 -11
28 -21 35 -21 21 0 3 52 -26 76 -28 22 -27 54 1 54 9 0 20 9 26 20 7 13 21 20
40 20 20 0 35 8 46 25 13 20 20 23 35 14 27 -14 24 -38 -7 -49 -14 -6 -24 -16
-21 -23 7 -22 38 -19 62 7 13 14 31 26 40 26 8 0 15 7 15 15 0 8 -6 15 -14 15
-22 0 -29 32 -11 49 15 15 18 14 39 -12 l23 -28 17 26 c16 24 23 26 68 23 36
-2 52 1 56 10 2 7 -5 16 -17 19 -25 6 -28 41 -5 50 10 4 23 -2 33 -14 21 -28
103 -40 120 -19 18 22 5 36 -34 36 -23 0 -38 6 -44 19 -17 31 6 40 69 30 30
-6 104 -9 164 -7 l110 3 8 -32 c5 -18 12 -33 16 -33 4 0 27 16 51 35 40 32 46
34 65 22 17 -12 25 -11 54 6 l34 20 -28 22 c-18 14 -25 27 -21 38 9 25 34 21
54 -9 16 -25 17 -25 32 -6 9 10 24 22 34 25 25 9 21 26 -8 37 -14 5 -25 16
-25 24 0 18 29 35 48 29 22 -8 44 18 37 44 -3 13 0 33 6 44 8 15 8 24 0 32 -6
6 -11 26 -11 44 0 20 -8 41 -21 54 -14 14 -19 28 -15 44 7 28 -7 40 -49 40
-24 0 -31 5 -33 23 -3 17 2 25 17 29 12 3 21 7 21 8 0 2 -24 28 -54 59 l-54
55 -16 -24 c-19 -28 -41 -32 -50 -9 -3 9 4 24 18 37 l24 23 -34 32 c-32 30
-40 33 -87 30 -42 -2 -52 0 -55 14 -2 11 6 22 22 29 25 12 36 39 16 39 -6 0
-30 20 -54 45 l-44 45 -75 0 c-53 0 -76 4 -80 13 -6 17 3 32 26 40 30 11 20
37 -15 37 -23 0 -38 -8 -54 -27 l-22 -28 -37 38 c-30 31 -35 42 -30 66 9 43
-13 51 -42 15 l-24 -29 -22 28 -23 27 -221 0 -221 0 -16 -25 c-11 -17 -26 -25
-46 -25 -20 0 -35 8 -46 25 -20 30 -38 32 -57 5z m-3176 -651 c16 -25 3 -34
-52 -37 -60 -3 -96 14 -86 41 5 14 18 16 68 13 37 -2 65 -9 70 -17z m2577 -81
c19 -19 16 -117 -4 -125 -8 -3 -20 -1 -25 4 -11 11 -20 119 -11 128 9 9 27 6
40 -7z m-35 -181 c9 -23 -8 -40 -32 -32 -30 9 -28 45 3 45 13 0 26 -6 29 -13z
m-1825 -309 c-3 -25 -34 -36 -50 -20 -17 17 -1 42 27 42 22 0 26 -4 23 -22z
m2660 -401 c2 -9 -4 -20 -13 -23 -20 -8 -50 19 -40 36 10 17 49 8 53 -13z
m510 -149 c21 -21 14 -48 -12 -48 -28 0 -42 26 -25 46 14 17 22 17 37 2z
m-3930 -70 c-3 -25 -34 -36 -50 -20 -17 17 -1 42 27 42 22 0 26 -4 23 -22z
m-613 -38 c0 -33 -32 -40 -44 -8 -11 29 -5 40 22 36 16 -2 22 -10 22 -28z
m130 -5 c0 -17 -7 -20 -40 -20 -34 0 -40 3 -43 23 -3 22 0 23 40 20 35 -2 43
-7 43 -23z m3763 -42 c3 -18 -2 -23 -17 -23 -21 0 -45 32 -34 44 15 15 48 0
51 -21z m-4236 -368 c-4 -84 -11 -101 -36 -92 -13 5 -16 23 -16 85 0 85 4 94
35 90 19 -3 20 -9 17 -83z m3408 -25 c0 -24 -15 -33 -40 -25 -25 8 -26 42 -2
47 26 6 42 -2 42 -22z m-2315 -45 c0 -23 -34 -33 -46 -14 -10 17 9 41 30 37 9
-2 16 -12 16 -23z m3014 -34 c12 -22 5 -31 -26 -31 -16 0 -23 6 -23 18 0 36
33 44 49 13z m-2673 -46 c7 -18 -13 -45 -33 -45 -19 0 -28 27 -13 45 16 19 39
19 46 0z m1994 -3 c0 -40 -42 -55 -60 -22 -15 27 -5 40 31 40 21 0 29 -5 29
-18z m628 -74 c17 -17 15 -77 -3 -84 -23 -9 -45 15 -45 51 0 45 21 60 48 33z
m-50 -127 c16 -10 13 -42 -4 -48 -7 -2 -19 4 -28 13 -13 12 -14 19 -5 30 13
16 19 17 37 5z m2503 -91 c36 -20 18 -57 -21 -45 -19 6 -27 35 -13 48 8 9 11
9 34 -3z m-4681 -25 c0 -18 -5 -25 -19 -25 -24 0 -33 13 -25 34 10 27 44 20
44 -9z m3152 -158 c13 -21 2 -32 -34 -35 -39 -3 -64 17 -54 44 5 13 14 15 44
9 20 -4 40 -12 44 -18z m1145 -83 c3 -8 -1 -23 -10 -31 -13 -13 -19 -14 -31
-3 -9 7 -16 21 -16 31 0 24 48 26 57 3z m-1449 -52 c4 -28 -24 -40 -45 -19
-21 21 -9 49 19 45 15 -2 24 -11 26 -26z m-2273 8 c9 -14 -13 -50 -31 -50 -8
0 -17 7 -20 15 -11 29 35 61 51 35z m1215 -45 c20 -24 4 -45 -34 -45 -36 0
-64 28 -51 50 10 15 71 12 85 -5z m-175 -55 c0 -27 -22 -39 -31 -16 -8 22 3
49 19 43 6 -2 12 -14 12 -27z m1100 0 c0 -33 -32 -40 -44 -8 -11 29 -5 40 22
36 16 -2 22 -10 22 -28z m-2581 11 c10 -16 -5 -41 -24 -41 -23 0 -32 13 -24
34 7 17 39 22 48 7z m84 -48 c13 -25 4 -43 -19 -43 -25 0 -35 25 -19 45 16 20
27 19 38 -2z m747 7 c10 -16 -5 -50 -21 -50 -17 0 -28 24 -20 45 6 17 32 20
41 5z m523 -14 c2 -10 -1 -23 -8 -30 -14 -14 -41 19 -33 40 8 20 37 13 41 -10z
m-140 -29 c6 -6 12 -28 14 -47 3 -34 4 -35 41 -32 27 3 39 -1 43 -12 11 -28
-14 -44 -64 -42 -39 1 -53 7 -79 35 -49 49 -42 111 13 111 12 0 26 -6 32 -13z
m-3093 -16 c0 -8 -8 -19 -17 -25 -22 -13 -44 5 -34 29 7 20 51 16 51 -4z
m3413 -45 c2 -10 -1 -23 -7 -29 -14 -14 -41 9 -41 35 0 26 43 21 48 -6z m-533
-86 c0 -36 -29 -33 -33 3 -3 23 0 28 15 25 12 -2 18 -12 18 -28z m1096 -32 c9
-18 8 -24 -8 -37 -11 -9 -23 -24 -26 -33 -8 -23 -43 -23 -52 -1 -4 12 2 24 18
38 13 11 27 28 30 38 9 23 24 22 38 -5z m-261 -173 c15 -18 6 -45 -15 -45 -18
0 -30 24 -21 45 7 19 20 19 36 0z m-3540 -14 c0 -22 -29 -36 -43 -22 -15 15 0
41 23 41 13 0 20 -7 20 -19z m3450 -26 c15 -18 6 -45 -13 -45 -20 0 -40 27
-33 45 7 19 30 19 46 0z m-350 -220 c15 -18 6 -45 -14 -45 -15 0 -36 29 -36
49 0 16 36 13 50 -4z m-2140 -549 c0 -32 -18 -43 -37 -23 -20 20 -10 47 17 47
15 0 20 -7 20 -24z"></path>
<path d="M5259 4737 c-14 -31 -1 -54 25 -44 20 8 20 27 2 52 -14 19 -15 19
-27 -8z"></path>
<path d="M1030 3925 c-10 -12 -7 -16 16 -25 31 -12 50 -1 41 24 -8 20 -41 21
-57 1z"></path>
<path d="M2330 3900 c-6 -11 -8 -31 -4 -45 8 -34 -11 -55 -52 -55 -43 0 -51
-15 -20 -35 20 -14 26 -26 28 -68 3 -50 4 -52 35 -55 17 -2 37 -10 44 -19 11
-13 9 -19 -14 -37 -32 -26 -35 -58 -6 -78 17 -11 21 -25 23 -73 1 -46 5 -60
16 -60 10 0 17 13 20 40 4 35 8 40 30 40 21 0 25 -5 28 -36 2 -29 -2 -39 -22
-53 -32 -21 -35 -72 -7 -108 14 -17 21 -44 23 -84 l3 -59 40 -5 c39 -5 40 -6
43 -47 3 -34 -1 -44 -18 -53 l-22 -12 21 -22 c12 -12 21 -29 21 -37 0 -25 11
-29 36 -13 22 15 25 14 66 -28 24 -24 51 -47 61 -51 9 -3 17 -13 17 -22 0 -8
11 -19 23 -24 22 -9 23 -14 19 -63 l-4 -53 46 -34 c49 -37 55 -51 30 -72 -13
-11 -19 -8 -39 17 -17 21 -27 26 -35 18 -16 -16 -3 -39 41 -70 22 -15 60 -56
85 -90 38 -54 85 -94 109 -94 3 0 10 11 15 25 6 15 17 25 30 25 30 0 36 -27
11 -54 l-21 -22 29 -22 c32 -23 41 -20 41 13 0 26 27 53 39 39 5 -5 11 -18 13
-29 5 -29 31 -25 46 8 11 23 19 28 44 25 25 -2 33 -9 42 -38 14 -43 29 -45 36
-5 4 23 11 31 30 33 50 7 63 42 16 42 -32 0 -48 22 -44 62 4 43 34 51 48 13
13 -35 53 -32 58 5 2 14 9 31 15 39 9 10 13 133 15 425 1 226 5 485 8 576 7
181 0 235 -32 235 -19 0 -19 -12 -15 -607 3 -560 2 -608 -14 -614 -9 -4 -21
-2 -26 3 -6 6 -12 247 -15 629 -3 340 -8 622 -10 626 -27 43 -36 -145 -39
-755 -2 -431 -5 -500 -18 -515 -9 -9 -19 -29 -22 -45 -9 -36 -50 -67 -88 -67
-52 0 -109 36 -208 132 -119 116 -164 173 -173 217 -3 19 -21 53 -40 75 -18
23 -36 51 -40 63 -4 12 -20 38 -36 58 -16 20 -46 67 -67 103 -34 62 -37 72
-34 138 2 67 0 74 -27 105 -52 62 -62 82 -62 131 0 35 -5 50 -20 61 -25 17
-66 108 -75 167 -4 24 -14 54 -21 65 -12 19 -18 65 -23 168 -1 32 -16 35 -31
7z m207 -622 c5 -7 9 -38 9 -68 -1 -52 -2 -55 -26 -55 -23 0 -25 4 -28 53 -4
66 20 103 45 70z m438 -803 c0 -13 -8 -21 -22 -23 -17 -3 -23 2 -23 16 0 10 3
22 7 26 13 13 38 1 38 -19z"></path>
<path d="M3460 3845 c-15 -18 0 -70 20 -70 20 0 35 52 20 70 -7 8 -16 15 -20
15 -4 0 -13 -7 -20 -15z"></path>
<path d="M4825 3400 c-10 -17 5 -30 34 -30 34 0 44 9 30 27 -13 15 -55 18 -64
3z"></path>
<path d="M2065 3360 c-4 -7 -3 -16 3 -22 14 -14 45 -2 40 15 -6 16 -34 21 -43
7z"></path>
<path d="M5334 3145 c-4 -9 -2 -21 4 -27 15 -15 44 -1 40 19 -4 23 -36 29 -44
8z"></path>
<path d="M2284 2956 c-11 -30 1 -61 25 -64 38 -6 46 12 20 47 -25 34 -37 38
-45 17z"></path>
<path d="M2584 2869 c-10 -17 13 -36 27 -22 12 12 4 33 -11 33 -5 0 -12 -5
-16 -11z"></path>
<path d="M2623 2824 c-3 -8 3 -25 14 -37 10 -12 25 -35 31 -50 16 -38 36 -29
40 16 3 31 -1 38 -21 46 -13 5 -27 17 -30 25 -8 20 -26 21 -34 0z"></path>
<path d="M3634 2796 c-3 -7 -4 -38 -2 -67 3 -46 6 -54 23 -54 17 0 20 7 22 55
2 52 -8 80 -29 80 -5 0 -11 -6 -14 -14z"></path>
<path d="M2713 2654 c-8 -21 13 -42 28 -27 13 13 5 43 -11 43 -6 0 -13 -7 -17
-16z"></path>
<path d="M3624 2615 c-4 -9 -2 -21 4 -27 16 -16 47 -5 47 17 0 26 -42 34 -51
10z"></path>
<path d="M1354 2609 c-8 -14 11 -33 25 -25 6 4 11 14 11 22 0 16 -26 19 -36 3z"></path>
<path d="M1505 2480 c-4 -7 -3 -16 3 -22 14 -14 57 -6 57 12 0 18 -50 26 -60
10z"></path>
<path d="M174 2266 c-9 -24 4 -48 23 -44 24 4 24 52 0 56 -9 2 -20 -4 -23 -12z"></path>
<path d="M4595 2181 c-8 -15 3 -31 21 -31 9 0 14 7 12 17 -4 20 -24 28 -33 14z"></path>
<path d="M174 2005 c-4 -9 -2 -21 4 -27 15 -15 44 -1 40 19 -4 23 -36 29 -44
8z"></path>
<path d="M5994 1779 c-10 -17 13 -36 27 -22 12 12 4 33 -11 33 -5 0 -12 -5
-16 -11z"></path>
<path d="M1272 453 c2 -10 10 -18 18 -18 22 0 18 29 -3 33 -14 3 -18 -1 -15
-15z"></path>
</g>
</svg>